<svg width="35" height="31" viewBox="0 0 35 31" fill="none" xmlns="http://www.w3.org/2000/svg">
<path fill-rule="evenodd" clip-rule="evenodd" d="M29.109 30.5099L34.109 25.0192C34.6481 24.4272 34.6272 23.5162 34.0616 22.9495L29.0616 17.9403L26.9383 20.0597L29.712 22.8385C28.1905 22.827 26.4168 22.5621 24.8832 21.6945C23.2203 20.7537 21.5165 18.8122 20.1647 16.9448C19.5075 16.0369 18.9663 15.1933 18.5898 14.5769C18.4019 14.2694 18.2559 14.0199 18.158 13.8494C18.1091 13.7641 18.0722 13.6987 18.0482 13.6556L18.0218 13.6082L18.0153 13.5964C17.9948 13.5587 17.9725 13.5215 17.9488 13.4857L16.6981 14.3139C17.9488 13.4857 17.9488 13.4857 17.9488 13.4857L17.9481 13.4847L17.9438 13.4782L17.9329 13.462L17.894 13.4042C17.8605 13.3548 17.8122 13.284 17.75 13.1944C17.6257 13.0152 17.4457 12.7604 17.2183 12.4509C16.7646 11.8331 16.1174 10.9907 15.3436 10.0932C13.8469 8.35727 11.6911 6.19224 9.43252 5.23854C7.29577 4.33628 5.13646 4.0654 3.5415 4.01118C2.73796 3.98386 2.06156 4.01104 1.58071 4.04574C1.33989 4.06311 1.14699 4.08245 1.01044 4.09802C0.942132 4.10581 0.887825 4.11267 0.848567 4.11789L0.801059 4.12439L0.78599 4.12656L0.780668 4.12734L0.778565 4.12766C0.778565 4.12766 0.776836 4.12792 0.999969 5.61123C1.2231 7.09454 1.22238 7.09465 1.22238 7.09465L1.24365 7.09176C1.26522 7.08889 1.30112 7.08432 1.35035 7.0787C1.44886 7.06747 1.6003 7.05212 1.79659 7.03796C2.18995 7.00958 2.75884 6.9863 3.43957 7.00945C4.81317 7.05614 6.57838 7.28984 8.26553 8.00225C9.83084 8.66321 11.5996 10.3449 13.0715 12.0521C13.7819 12.8761 14.38 13.6544 14.8005 14.2268C15.0102 14.5124 15.1746 14.7451 15.2853 14.9047C15.3406 14.9845 15.3825 15.0458 15.4099 15.0863L15.4168 15.0965L15.429 15.1185C15.4585 15.1712 15.5011 15.2469 15.5561 15.3428C15.6662 15.5345 15.8261 15.8076 16.0297 16.1409C16.4362 16.8063 17.0208 17.7179 17.7346 18.704C19.1249 20.6246 21.1444 23.0262 23.406 24.3056C25.3954 25.4311 27.5583 25.7782 29.312 25.8313L26.8909 28.4901L29.109 30.5099Z" fill="black"/>
<path fill-rule="evenodd" clip-rule="evenodd" d="M29.0597 0.938354L34.0597 5.92914C34.3412 6.21019 34.4996 6.59158 34.5 6.9894C34.5003 7.38723 34.3427 7.7689 34.0616 8.05047L29.0616 13.0597L26.9383 10.9403L29.712 8.16153C28.1905 8.17299 26.4168 8.43791 24.8832 9.30551C23.2203 10.2463 21.5165 12.1878 20.1647 14.0552C19.5075 14.9631 18.9663 15.8067 18.5898 16.4231C18.4019 16.7307 18.2559 16.9801 18.158 17.1506C18.1091 17.2359 18.0722 17.3013 18.0482 17.3444L18.0218 17.3918L18.0153 17.4036C17.9948 17.4413 17.9725 17.4785 17.9488 17.5143L16.6981 16.6861C17.9488 17.5143 17.9488 17.5143 17.9488 17.5143L17.947 17.5169L17.9438 17.5218L17.9329 17.538L17.894 17.5958C17.8605 17.6452 17.8122 17.716 17.75 17.8056C17.6257 17.9848 17.4457 18.2396 17.2183 18.5491C16.7646 19.1669 16.1174 20.0093 15.3436 20.9068C13.8469 22.6427 11.6911 24.8078 9.43252 25.7615C7.29577 26.6637 5.13646 26.9346 3.5415 26.9888C2.73796 27.0161 2.06156 26.989 1.58071 26.9543C1.33989 26.9369 1.14699 26.9176 1.01044 26.902C0.942132 26.8942 0.887825 26.8873 0.848567 26.8821L0.801059 26.8756L0.78599 26.8734L0.780668 26.8727L0.778565 26.8723C0.778565 26.8723 0.776836 26.8721 0.999969 25.3888C1.2231 23.9055 1.22238 23.9054 1.22238 23.9054L1.24365 23.9082C1.26522 23.9111 1.30112 23.9157 1.35035 23.9213C1.44886 23.9325 1.6003 23.9479 1.79659 23.962C2.18995 23.9904 2.75884 24.0137 3.43957 23.9906C4.81317 23.9439 6.57838 23.7102 8.26553 22.9978C9.83084 22.3368 11.5996 20.6551 13.0715 18.9479C13.7819 18.1239 14.38 17.3456 14.8005 16.7732C15.0102 16.4876 15.1746 16.2549 15.2853 16.0953C15.3406 16.0155 15.3825 15.9542 15.4099 15.9137L15.4168 15.9035L15.429 15.8815C15.4585 15.8288 15.5011 15.7531 15.5561 15.6572C15.6662 15.4655 15.8261 15.1924 16.0297 14.8591C16.4362 14.1937 17.0208 13.2821 17.7346 12.296C19.1249 10.3754 21.1444 7.9738 23.406 6.69438C25.3015 5.62212 27.3544 5.25635 29.0608 5.17827L26.9403 3.06163L29.0597 0.938354Z" fill="black"/>
</svg>
