<svg width="24" height="24" viewBox="0 0 24 24" fill="none" xmlns="http://www.w3.org/2000/svg">
<path d="M15.733 5.009H21.672L18.975 7.70401C18.766 7.91301 18.766 8.25502 18.975 8.46402C19.08 8.56902 19.217 8.62204 19.356 8.62204C19.493 8.62204 19.631 8.56902 19.737 8.46402L23.352 4.85306C23.368 4.83306 23.364 4.80803 23.379 4.78903C23.408 4.75003 23.449 4.72501 23.469 4.67801C23.489 4.63301 23.477 4.58402 23.481 4.53702C23.489 4.49802 23.497 4.46904 23.493 4.43204C23.481 4.30704 23.444 4.18401 23.352 4.09201L19.737 0.479034C19.526 0.268034 19.184 0.270034 18.975 0.479034C18.766 0.690034 18.766 1.03006 18.975 1.24106L21.672 3.93405H15.733C11.452 3.93405 7.96899 7.41804 7.96899 11.7C7.96899 11.716 7.96901 11.731 7.97101 11.745C7.95001 15.415 4.95697 18.391 1.28497 18.391C0.987973 18.391 0.745972 18.631 0.745972 18.93C0.745972 19.227 0.987973 19.467 1.28497 19.467C5.56397 19.467 9.047 15.985 9.047 11.701C9.047 11.687 9.04698 11.672 9.04498 11.656C9.06898 7.98604 12.06 5.009 15.733 5.009Z" fill="black"/>
<path d="M23.481 18.865C23.477 18.818 23.489 18.769 23.469 18.722C23.449 18.675 23.4081 18.65 23.3791 18.613C23.3631 18.593 23.367 18.566 23.352 18.549L19.516 14.713C19.305 14.504 18.9651 14.504 18.7541 14.713C18.5451 14.924 18.5451 15.264 18.7541 15.475L21.672 18.391L15.733 18.393C13.909 18.393 12.2 17.663 10.924 16.332C10.717 16.119 10.375 16.111 10.164 16.318C9.94903 16.523 9.94102 16.863 10.146 17.078C11.628 18.619 13.611 19.469 15.732 19.469L21.671 19.467L18.974 22.162C18.765 22.371 18.765 22.711 18.974 22.922C19.079 23.027 19.216 23.08 19.355 23.08C19.492 23.08 19.6301 23.027 19.7361 22.922L23.351 19.309C23.443 19.217 23.48 19.096 23.492 18.969C23.497 18.931 23.489 18.902 23.481 18.865Z" fill="black"/>
<path d="M1.28601 5.00897C3.11201 5.00897 4.82099 5.74298 6.10199 7.07898C6.20699 7.18798 6.35003 7.245 6.49103 7.245C6.62603 7.245 6.761 7.19397 6.862 7.09497C7.077 6.88997 7.085 6.54802 6.88 6.33502C5.396 4.78602 3.40701 3.93298 1.28601 3.93298C0.989011 3.93298 0.747009 4.17498 0.747009 4.47198C0.747009 4.76898 0.989011 5.00897 1.28601 5.00897Z" fill="black"/>
</svg>
