<svg width="20" height="9" viewBox="0 0 20 9" fill="none" xmlns="http://www.w3.org/2000/svg">
<path d="M19.2132 4.15077C19.2132 4.29377 19.1563 4.42775 19.0553 4.52775L15.4422 8.14278C15.2332 8.35378 14.8913 8.35378 14.6823 8.14277C14.4733 7.93777 14.4693 7.59577 14.6823 7.38277L17.9143 4.15077L14.6823 0.918776C14.4713 0.707776 14.4713 0.367783 14.6823 0.156783C14.8913 -0.0522173 15.2332 -0.0522173 15.4422 0.156783L19.0553 3.76778C19.1563 3.86978 19.2132 4.00877 19.2132 4.15077Z" fill="black"/>
<path d="M19.2152 4.15479C19.2152 4.44979 18.9732 4.69177 18.6762 4.69177L0.608185 4.69177C0.311185 4.69177 0.0692447 4.44978 0.0692447 4.15478C0.0692448 3.85578 0.311185 3.61578 0.608185 3.61578L18.6762 3.61578C18.9722 3.61578 19.2152 3.85579 19.2152 4.15479Z" fill="black"/>
</svg>
