<svg width="20" height="10" viewBox="0 0 20 10" fill="none" xmlns="http://www.w3.org/2000/svg">
<path d="M0.0712689 5.09276C0.0712689 4.94976 0.128228 4.81578 0.229228 4.71578L3.84227 1.10075C4.05127 0.889755 4.39315 0.889755 4.60215 1.10075C4.81115 1.30575 4.81515 1.64776 4.60215 1.86076L1.37022 5.09276L4.60215 8.32475C4.81315 8.53575 4.81315 8.87575 4.60215 9.08675C4.39315 9.29575 4.05126 9.29575 3.84226 9.08675L0.229228 5.47575C0.128228 5.37375 0.0712689 5.23476 0.0712689 5.09276Z" fill="black"/>
<path d="M0.0692444 5.08874C0.0692444 4.79374 0.311307 4.55176 0.608307 4.55176L18.6763 4.55176C18.9733 4.55176 19.2152 4.79375 19.2152 5.08875C19.2152 5.38775 18.9733 5.62775 18.6763 5.62775L0.608307 5.62775C0.312307 5.62775 0.0692444 5.38774 0.0692444 5.08874Z" fill="black"/>
</svg>
